<?xml version="1.0" encoding="UTF-8"?>
<svg id="Layer_2" data-name="Layer 2" xmlns="http://www.w3.org/2000/svg" viewBox="0 0 75.831 77.344">
  <defs>
    <style>
      .cls-1 {
        fill: #d02b27;
      }

      .cls-2 {
        fill: #c6d067;
      }

      .cls-3 {
        fill: #3c59a1;
      }
    </style>
  </defs>
  <g id="Fan">
    <g id="Fan-2" data-name="Fan">
      <g>
        <path class="cls-3" d="M55.478,71.711c-1.379,1.246-3.096,2.17-4.515,3.38C22.006,84.758-5.022,62.031.796,31.6c2.73,18.786,20.542,25.744,34.665,12.716,1.489-1.374,2.47-4.265,3.873-5.152.987-.624,3.809-.475,5.088-.334,15.401,1.696,22.426,22.608,11.057,32.882Z"/>
        <path class="cls-2" d="M64.925,10.61C45.696-.473,24.692,21.409,39.333,39.164c-1.403.887-2.384,3.778-3.873,5.152C21.338,57.344,3.526,50.386.796,31.6,6.566,1.413,42.6-10.381,64.925,10.61Z"/>
        <path class="cls-1" d="M50.963,75.091l4.515-3.38c11.369-10.273,4.344-31.186-11.057-32.882-1.279-.141-4.1-.29-5.088.334C24.692,21.409,45.696-.473,64.925,10.61c19.934,18.743,10.932,52.41-13.961,64.481Z"/>
      </g>
    </g>
  </g>
</svg>